<?xml version="1.0" encoding="UTF-8"?>
<svg version="1.1" xmlns="http://www.w3.org/2000/svg" width="878" height="820">
<path d="M0 0 C0.83402344 -0.01675781 1.66804688 -0.03351562 2.52734375 -0.05078125 C5.0625 0.3125 5.0625 0.3125 7.27755737 1.81214905 C10.78068699 3.69941373 13.18751244 3.68444421 17.15673828 3.68139648 C17.85180984 3.68516296 18.54688141 3.68892944 19.26301575 3.69281006 C20.76674174 3.69922565 22.27050831 3.69892835 23.77423477 3.69262505 C26.16388002 3.68347479 28.55274707 3.6937854 30.94235229 3.70924377 C37.73434274 3.7492176 44.52627081 3.75055834 51.31835938 3.74829102 C55.48050225 3.74823956 59.64222819 3.76758673 63.80425644 3.79762459 C66.14128573 3.8083459 68.47748232 3.79637846 70.81448364 3.78379822 C79.27823168 3.80557487 86.24609508 4.84256697 94.0625 8.3125 C96.42832001 9.03095454 98.80231187 9.72372523 101.1875 10.375 C107.40802602 12.11048592 113.63147876 13.87231824 119.59375 16.375 C125.49362401 17.96956054 131.56882597 17.67236132 137.65234375 17.703125 C143.68846402 17.8444126 147.5192524 18.15822907 152.0625 22.3125 C152.0625 22.9725 152.0625 23.6325 152.0625 24.3125 C153.74666016 24.27769531 153.74666016 24.27769531 155.46484375 24.2421875 C169.39895552 24.04125966 169.39895552 24.04125966 175.7109375 25.8203125 C178.90984906 26.48985213 182.04811178 26.51197638 185.3125 26.625 C193.08076603 27.04829603 202.33697625 28.58697625 208.0625 34.3125 C212.74072284 35.97707696 217.6438267 36.36008594 222.57421875 36.34375 C233.96319049 36.36841844 241.4668392 38.15282943 251.16796875 44.18359375 C254.68316445 46.30630961 258.01555549 47.17372793 262.04492188 47.85839844 C268.68898562 49.35379517 272.28965643 54.77739292 275.96240234 60.02929688 C281.19505496 68.70288767 282.05703035 75.58223826 281.75537109 85.53271484 C281.68755196 87.8107545 281.67335868 90.08432036 281.66796875 92.36328125 C281.42781811 116.29391949 281.42781811 116.29391949 273.890625 123.9453125 C270.58655086 126.41630812 266.92787391 127.92955511 263.0625 129.3125 C263.60390625 130.34310547 263.60390625 130.34310547 264.15625 131.39453125 C264.6203125 132.29558594 265.084375 133.19664062 265.5625 134.125 C266.0265625 135.01832031 266.490625 135.91164062 266.96875 136.83203125 C268.0625 139.3125 268.0625 139.3125 268.0625 142.3125 C269.0215625 142.68375 269.0215625 142.68375 270 143.0625 C270.680625 143.475 271.36125 143.8875 272.0625 144.3125 C272.248125 145.3025 272.248125 145.3025 272.4375 146.3125 C272.64375 146.9725 272.85 147.6325 273.0625 148.3125 C275.04886298 149.01876239 277.05098259 149.68143571 279.0625 150.3125 C281.4375 152.3125 281.4375 152.3125 283.0625 154.3125 C283.0625 154.9725 283.0625 155.6325 283.0625 156.3125 C283.660625 156.51875 284.25875 156.725 284.875 156.9375 C287.9008427 158.83945827 288.70958502 161.06550404 290.0625 164.3125 C290.0625 164.9725 290.0625 165.6325 290.0625 166.3125 C290.76375 166.395 291.465 166.4775 292.1875 166.5625 C301.9557881 169.11074907 307.03595256 178.40083441 311.94140625 186.5390625 C313.14325629 188.51650229 313.14325629 188.51650229 315.1875 190.9375 C320.48518147 197.64789653 322.32754445 206.20186961 323.3359375 214.5859375 C323.57570313 215.15570313 323.81546875 215.72546875 324.0625 216.3125 C324.83722656 216.59480469 325.61195313 216.87710938 326.41015625 217.16796875 C330.16285657 218.7873225 330.78056785 220.98409211 332.5 224.625 C335.14370968 230.0473034 335.14370968 230.0473034 339.3125 234.25 C342.59195762 236.70959322 343.51677707 238.53686334 345.0625 242.3125 C345.41552734 245.59228516 345.41552734 245.59228516 345.3984375 249.1015625 C345.41132812 250.37257813 345.42421875 251.64359375 345.4375 252.953125 C345.4375 254.9521544 345.43740015 256.95121885 345.42285156 258.95019531 C345.4142775 260.89650689 345.43720353 262.84287675 345.4609375 264.7890625 C345.45755371 265.94486816 345.45416992 267.10067383 345.45068359 268.29150391 C346.24525119 272.21487957 347.82815876 273.11269761 351.0625 275.3125 C351.3925 275.9725 351.7225 276.6325 352.0625 277.3125 C354.14501476 277.85664539 354.14501476 277.85664539 356.625 278.1875 C360.10551236 278.81448591 362.94756107 279.5746852 366.0625 281.25 C372.72522678 284.81409337 379.08388256 286.3623003 386.625 286.6875 C393.87974735 287.11576135 399.23865159 289.14636693 404.125 294.625 C405.07564735 297.35018908 405.01134012 298.52661433 404.75 301.3125 C404.56327108 303.39468939 404.56327108 303.39468939 405.0625 305.3125 C406.69941497 306.67245669 406.69941497 306.67245669 408.8125 307.6875 C413.38878177 310.1271206 414.20643682 312.37586709 415.80859375 317.16796875 C417.46868991 321.33113825 419.69401989 325.0405941 422 328.875 C422.44625732 329.61790283 422.89251465 330.36080566 423.35229492 331.1262207 C424.21393203 332.5588817 425.07628624 333.99111173 425.93945312 335.42285156 C427.27267628 337.66614444 428.5212094 339.94806561 429.75 342.25 C433.4843875 349.06989207 438.16827492 355.28883837 443.0625 361.3125 C444.32322381 363.83394762 444.12709114 366.00029612 444.14892578 368.77197266 C444.22804503 376.97389788 444.22804503 376.97389788 448.1875 383.9375 C449.99260381 385.64682279 451.83933962 387.14734165 453.8359375 388.625 C458.20002755 391.94249832 460.2526076 395.41712387 462.5 400.375 C464.90653534 405.67415668 467.00713707 408.69106853 472.2734375 411.32421875 C477.43752576 414.17687013 479.43559073 420.94467359 481.0625 426.3125 C481.60447777 428.61306299 482.09656759 430.91194364 482.53515625 433.234375 C482.9917112 435.36219474 482.9917112 435.36219474 484.10546875 437.33203125 C486.11937877 441.49959198 485.47454248 446.07637255 484.0625 450.3125 C483.7325 450.9725 483.4025 451.6325 483.0625 452.3125 C483.64 452.993125 484.2175 453.67375 484.8125 454.375 C488.92548037 459.74472437 491.17151711 463.17258675 491.5625 469.9375 C491.8441451 474.75166624 492.6914109 476.74877724 496.0625 480.3125 C501.02457809 488.22575774 500.80660144 495.880712 501.01953125 505.02148438 C501.08473829 510.91605472 501.08473829 510.91605472 503.39941406 516.12841797 C505.17522202 517.63820702 505.17522202 517.63820702 508.0625 519.3125 C510.0625 522.0625 510.0625 522.0625 512.0625 525.3125 C512.70445312 526.21355469 512.70445312 526.21355469 513.359375 527.1328125 C521.12249031 538.1096906 526.46524111 548.63662676 527.63671875 562.1015625 C528.03457706 565.10192516 528.52089981 566.74465625 530.125 569.25 C532.0625 572.3125 532.0625 572.3125 532.40161133 576.12890625 C532.87764681 580.59117387 534.62358822 582.89523303 537.57421875 586.3125 C542.94539964 592.83915037 546.92554164 599.76333615 550.80541992 607.25097656 C551.87823095 609.31872738 552.97169326 611.3745064 554.06835938 613.4296875 C566.15515117 636.29653094 566.15515117 636.29653094 565.0625 646.3125 C564.84464844 646.951875 564.62679687 647.59125 564.40234375 648.25 C563.93496097 651.08652995 564.82962555 652.27996467 566.25 654.75 C568.82131932 659.58888388 570.41281497 664.36053993 571.90039062 669.62231445 C572.87317233 672.71130511 574.01504216 675.6203801 575.28572083 678.5944519 C579.4731488 688.66424415 580.30977576 698.3870501 580.875 709.1875 C581.03278394 711.77033883 581.19743562 714.35263379 581.36515808 716.93484497 C581.46599463 718.52365103 581.5598208 720.11292183 581.64570618 721.7026062 C581.80390202 725.63650865 581.80390202 725.63650865 583.0625 729.3125 C583.17284806 730.91428012 583.22161269 732.52049961 583.23950195 734.12597656 C583.25233719 735.1275177 583.26517242 736.12905884 583.27839661 737.16094971 C583.28947701 738.79057648 583.28947701 738.79057648 583.30078125 740.453125 C583.308853 741.56806335 583.31692474 742.68300171 583.32524109 743.83172607 C583.33909059 746.19558147 583.34980885 748.55945694 583.35766602 750.92333984 C583.37486385 754.53391604 583.41874186 758.14357325 583.46289062 761.75390625 C583.47301865 764.04947243 583.48153441 766.3450464 583.48828125 768.640625 C583.50578934 769.71894592 583.52329742 770.79726685 583.54133606 771.90826416 C583.52370396 778.0204423 583.22604666 781.70361643 579.0625 786.3125 C577.6084375 787.240625 577.6084375 787.240625 576.125 788.1875 C572.64552452 790.60182993 571.29070648 792.8339559 569.3359375 796.5078125 C567.77251613 798.72345874 566.60107739 799.3910563 564.0625 800.3125 C559.00841189 801.04055959 554.58703233 800.99614437 550.1875 798.25 C547.38542624 796.02683948 547.38542624 796.02683948 545.12280273 796.67431641 C544.44290283 796.88491699 543.76300293 797.09551758 543.0625 797.3125 C531.44513386 798.43735835 521.57942051 797.59694935 511.0625 792.3125 C508.62535598 791.09392799 506.49444115 791.12972549 503.80786133 791.02246094 C493.26443896 790.59999565 484.12939635 788.60360437 474.3125 784.625 C469.20250647 782.58222948 465.52712254 781.69386349 460.0625 782.3125 C459.4025 782.6425 458.7425 782.9725 458.0625 783.3125 C455.53004874 783.41204144 453.03200494 783.45472062 450.5 783.4375 C449.77635254 783.43266602 449.05270508 783.42783203 448.30712891 783.42285156 C433.04958019 783.25184115 433.04958019 783.25184115 427.0625 778.3125 C426.7325 777.6525 426.4025 776.9925 426.0625 776.3125 C425.12043701 776.29268066 424.17837402 776.27286133 423.20776367 776.25244141 C419.66082275 776.17362534 416.11424685 776.08691471 412.56762695 775.99511719 C411.04231 775.95719716 409.5169148 775.92228517 407.99145508 775.890625 C396.86761791 775.65697696 386.32373617 774.92516462 375.6875 771.375 C369.21801102 769.30352683 362.69113474 767.77620697 356.0625 766.3125 C355.45733551 766.13744934 354.85217102 765.96239868 354.22866821 765.78204346 C351.64482663 765.22196419 349.27104924 765.18780523 346.62646484 765.18652344 C345.53788177 765.18271667 344.44929871 765.17890991 343.32772827 765.17498779 C342.15481232 765.17396057 340.98189636 765.17293335 339.7734375 765.171875 C337.27993882 765.15354212 334.78644899 765.13397138 332.29296875 765.11328125 C328.3694774 765.08436357 324.44655393 765.06250113 320.52294922 765.06201172 C316.73093515 765.05866315 312.94022406 765.02402251 309.1484375 764.984375 C307.98766693 764.9914447 306.82689636 764.9985144 305.63095093 765.00579834 C298.82778337 764.90496118 294.08377861 763.92528767 288.20613098 760.42420959 C284.65600214 758.5830754 281.28381507 758.86969215 277.375 759 C267.80971686 758.93040695 258.93592444 756.86855776 249.75 754.4375 C249.07297028 754.26028412 248.39594055 754.08306824 247.69839478 753.90048218 C236.58529917 750.96916866 236.58529917 750.96916866 231.50024414 748.77636719 C228.39842134 747.4555427 225.58013159 746.594241 222.296875 745.8828125 C221.24113281 745.64433594 220.18539063 745.40585937 219.09765625 745.16015625 C216.92409113 744.68202361 214.74961777 744.2079995 212.57421875 743.73828125 C206.10133408 742.2675286 200.32490354 740.32310797 194.35009766 737.41845703 C189.23844553 734.94718871 184.7221646 734.29669217 179.125 734.125 C168.20196177 733.40604714 157.41948613 728.47971342 149.4453125 720.98828125 C146.07555978 716.90459787 145.58808565 713.38886702 145.6640625 708.21484375 C146.28389808 703.69976695 148.14232061 699.78873699 149.8984375 695.609375 C151.37708163 691.42153727 151.55975766 687.60978304 151.76171875 683.20703125 C152.17644605 679.21595429 153.54408794 675.86350107 155.01953125 672.15625 C156.90431076 667.01722573 157.90351672 661.65278762 159.0625 656.3125 C160.47030477 649.91634655 162.09901356 644.00392421 164.75 638 C166.7471825 633.42387313 167.70877842 630.26730125 167.0625 625.3125 C166.7325 624.6525 166.4025 623.9925 166.0625 623.3125 C165.3449006 616.53647948 166.11572864 611.30626598 168.91015625 605.140625 C170.84944869 600.38114118 171.97158819 595.41283672 173.23046875 590.4375 C174.0625 587.3125 174.0625 587.3125 175.0625 585.3125 C175.165625 584.03375 175.26875 582.755 175.375 581.4375 C175.74318753 577.72055926 176.59935571 574.66769276 177.9375 571.1875 C181.30774969 561.60182606 181.96220041 551.35776561 183.0625 541.3125 C183.16304688 540.40290527 183.26359375 539.49331055 183.3671875 538.55615234 C183.80590885 534.5520789 184.22998238 530.54690393 184.6328125 526.5390625 C184.70387207 525.85046143 184.77493164 525.16186035 184.84814453 524.45239258 C185.00014285 522.93500615 185.14057569 521.41644104 185.27294922 519.8972168 C185.34787598 519.10226807 185.42280273 518.30731934 185.5 517.48828125 C185.56316406 516.77067627 185.62632812 516.05307129 185.69140625 515.3137207 C186.30124804 512.02498837 187.96313764 509.84408402 190.0625 507.3125 C191.0525 506.6525 192.0425 505.9925 193.0625 505.3125 C194.16124253 503.02125558 195.10877656 500.80725757 196 498.4375 C196.25724854 497.76928223 196.51449707 497.10106445 196.77954102 496.41259766 C197.55320745 494.38374368 198.30953349 492.34911421 199.0625 490.3125 C199.495625 489.16265625 199.92875 488.0128125 200.375 486.828125 C202.9094195 480.18744325 202.9094195 480.18744325 202.0625 473.3125 C199.75538485 470.23634647 197.47090226 467.69111603 194.65234375 465.078125 C191.71953981 461.94626197 189.84818369 458.83962746 187.875 455.0625 C187.53275391 454.44503906 187.19050781 453.82757813 186.83789062 453.19140625 C181.81549799 443.73175411 181.77133723 434.48927834 181.875 423.9375 C181.87564453 422.66777344 181.87628906 421.39804687 181.87695312 420.08984375 C181.92168969 410.73493093 181.92168969 410.73493093 183.0625 407.3125 C182.7325 406.3225 182.4025 405.3325 182.0625 404.3125 C181.95928292 402.45246079 181.90758313 400.58934652 181.88671875 398.7265625 C181.86287109 397.63085938 181.83902344 396.53515625 181.81445312 395.40625 C181.77163299 393.10174843 181.7403019 390.79700353 181.72070312 388.4921875 C181.66455681 382.04449743 181.66455681 382.04449743 179.14453125 376.2734375 C178.11392578 375.30277344 178.11392578 375.30277344 177.0625 374.3125 C175.2426239 371.30725935 174.76750337 368.88479859 174.5703125 365.3984375 C174.50457031 364.47289062 174.43882812 363.54734375 174.37109375 362.59375 C174.24823629 360.64894253 174.133713 358.70359143 174.02734375 356.7578125 C173.95902344 355.83484375 173.89070313 354.911875 173.8203125 353.9609375 C173.7702002 353.11708496 173.72008789 352.27323242 173.66845703 351.40380859 C173.27153234 349.13633614 173.27153234 349.13633614 171.12451172 348.17822266 C170.44404785 347.89253418 169.76358398 347.6068457 169.0625 347.3125 C168.19625 346.075 168.19625 346.075 167.3125 344.8125 C164.62587624 341.82736248 163.01868753 341.55344633 159.16015625 341.0625 C153.00763385 338.86271545 150.37390765 332.62674184 147.75 327.125 C147.21149414 326.03928711 147.21149414 326.03928711 146.66210938 324.93164062 C144.0625 319.60863095 144.0625 319.60863095 144.0625 317.3125 C143.19625 317.003125 143.19625 317.003125 142.3125 316.6875 C138.57112202 314.40110234 136.77847871 310.70865848 134.8125 306.875 C133.13983064 304.42573415 131.61819499 302.96462441 129.375 301.0625 C122.65794779 295.33143711 117.6736308 290.14698835 114.5 281.8125 C113.2440743 278.6793953 113.2440743 278.6793953 111.0625 276.3125 C106.94875564 275.25815588 103.76694218 275.17763646 99.5234375 275.3046875 C96.12893131 275.31235004 94.87688793 274.99616254 92.0625 273.3125 C90.845625 273.044375 89.62875 272.77625 88.375 272.5 C82.30147371 271.02418987 76.05195692 268.55327484 72.625 263.0625 C70.08162656 257.64049025 69.09244726 252.33493832 69.00390625 246.35546875 C68.98396606 245.29670532 68.98396606 245.29670532 68.96362305 244.21655273 C68.94651541 242.80589204 68.96364369 241.39430498 69.01879883 239.98461914 C68.98069162 237.12028552 68.70186494 234.94579907 66.61982727 232.8835144 C60.70296968 228.97857108 55.71902671 228.57881743 48.73828125 228.6484375 C47.14163887 228.64126205 47.14163887 228.64126205 45.51274109 228.63394165 C43.27467358 228.63055454 41.0365558 228.63967312 38.79858398 228.66064453 C35.37437058 228.68750494 31.95341135 228.66081327 28.52929688 228.62890625 C26.34895111 228.632209 24.16860737 228.63861244 21.98828125 228.6484375 C20.96736893 228.63831635 19.9464566 228.62819519 18.89460754 228.61776733 C13.00153261 228.70632728 13.00153261 228.70632728 8.00317383 231.66894531 C5.92962516 234.49349997 4.00426903 237.39609786 2.0625 240.3125 C0.32035323 242.2335984 -1.47354936 244.1088516 -3.3125 245.9375 C-4.68535156 247.31808594 -4.68535156 247.31808594 -6.0859375 248.7265625 C-8.88995397 251.26938292 -11.76161768 253.26523702 -14.9375 255.3125 C-15.9275 256.17875 -16.9175 257.045 -17.9375 257.9375 C-20.9375 260.3125 -20.9375 260.3125 -24.1875 261.25 C-25.095 261.600625 -26.0025 261.95125 -26.9375 262.3125 C-27.64763064 264.29748335 -28.30557326 266.30125336 -28.9375 268.3125 C-30.12096062 270.63814373 -31.33133743 272.9166662 -32.59765625 275.1953125 C-43.2483184 294.67026812 -43.2483184 294.67026812 -45.921875 316.40625 C-45.94123779 321.24694778 -46.85961995 323.99458319 -49.92578125 327.69921875 C-53.07309996 330.22318501 -56.47166711 331.69492569 -60.25390625 333.046875 C-66.38847711 335.94003506 -69.12927896 341.00202255 -72 346.8125 C-74.30546371 351.42342742 -76.69408352 355.27738343 -79.9375 359.3125 C-81.21549314 361.63313851 -82.43612351 363.94820138 -83.625 366.3125 C-87.4926856 373.77317763 -91.9863189 380.5121867 -96.9375 387.3125 C-97.66582031 388.31667969 -98.39414063 389.32085937 -99.14453125 390.35546875 C-100.5061698 392.22740598 -101.87056938 394.09733932 -103.23828125 395.96484375 C-104.50913179 397.72066255 -105.73519955 399.50904932 -106.9375 401.3125 C-107.5975 402.3025 -108.2575 403.2925 -108.9375 404.3125 C-109.45183594 405.08722656 -109.96617187 405.86195313 -110.49609375 406.66015625 C-114.41312965 412.31990667 -118.69290806 417.40467095 -123.5 422.3125 C-124.02972412 422.86429932 -124.55944824 423.41609863 -125.10522461 423.98461914 C-130.31257865 429.16472214 -135.56638248 431.41358323 -142.9375 432.3125 C-143.2675 433.3025 -143.5975 434.2925 -143.9375 435.3125 C-143.36 435.539375 -142.7825 435.76625 -142.1875 436 C-138.79527937 437.97879537 -136.68256529 440.82236942 -134.9375 444.3125 C-134.8554834 445.62250977 -134.7734668 446.93251953 -134.68896484 448.28222656 C-134.07996601 454.12517779 -131.64188594 458.66558206 -128.9140625 463.796875 C-128.41208344 464.77432678 -127.91010437 465.75177856 -127.39291382 466.7588501 C-125.26161585 470.90795548 -123.09751905 475.03966945 -120.93554688 479.17285156 C-109.67614259 500.78187837 -109.67614259 500.78187837 -107.9375 512.3125 C-106.79173221 516.84051138 -105.03511794 519.43069968 -101.1875 522.0625 C-93.07232855 527.71173537 -89.68618282 535.86005841 -87.7578125 545.2578125 C-86.83539917 548.69270404 -85.4285817 551.49424994 -83.75 554.625 C-81.30569351 559.24135111 -80.14968681 562.13544187 -80.9375 567.3125 C-81.2675 567.9725 -81.5975 568.6325 -81.9375 569.3125 C-82.18583265 571.79210062 -82.38484937 574.25688885 -82.55078125 576.7421875 C-82.66534804 578.27609167 -82.78060612 579.80994434 -82.89648438 581.34375 C-83.07436901 583.74993783 -83.24789951 586.15609918 -83.40893555 588.56347656 C-84.00797748 597.39590495 -84.94142765 605.05305952 -88.06665039 613.40332031 C-89.72092852 618.92963883 -89.55385478 624.52555399 -89.5 630.25 C-89.52384766 631.44173828 -89.54769531 632.63347656 -89.57226562 633.86132812 C-89.74160533 639.75776194 -89.74160533 639.75776194 -87.81982422 645.16845703 C-86.35379153 646.68297234 -86.35379153 646.68297234 -83.9375 648.3125 C-81.79544007 652.59661987 -82.39946623 656.69381967 -83.85546875 661.07421875 C-87.05624033 667.95446968 -90.71311586 670.9454805 -97.48681641 674.12158203 C-103.47115309 676.1869276 -109.22933214 676.10139618 -115.5 675.9375 C-117.3552832 675.94716797 -117.3552832 675.94716797 -119.24804688 675.95703125 C-126.34707978 675.8744407 -132.11307879 674.9965833 -138.64819336 672.17773438 C-141.53680563 671.08599481 -143.8395942 671.12330793 -146.875 671.30078125 C-149.33870313 671.31477956 -151.52510733 670.87399194 -153.9375 670.375 C-159.49382243 669.26529847 -164.98336479 668.90753946 -170.63085938 668.65454102 C-175.74454139 668.40897931 -175.74454139 668.40897931 -177.9375 667.3125 C-180.45414947 667.12205085 -182.95218009 666.98395764 -185.47265625 666.8828125 C-187.02020548 666.80907876 -188.56773087 666.73484339 -190.11523438 666.66015625 C-192.54824202 666.54733385 -194.98122034 666.43827086 -197.41479492 666.33837891 C-206.02365515 665.97751267 -213.84875544 665.57022905 -221.9375 662.3125 C-223.61645266 661.95692938 -225.30346348 661.633991 -227 661.375 C-230.32495622 660.76627725 -232.91954291 659.94704872 -235.875 658.3125 C-239.04952394 656.56523178 -241.79102358 655.89766323 -245.375 655.375 C-252.15149997 654.30205417 -257.50247737 651.81160217 -262.3125 646.875 C-265.94502832 641.14678227 -267.20524013 637.01377127 -267.125 630.25 C-267.12987893 624.89709707 -267.12987893 624.89709707 -269.66796875 620.37109375 C-271.78606161 619.15991028 -271.78606161 619.15991028 -273.9921875 618.23046875 C-275.9375 617.3125 -275.9375 617.3125 -277.9375 614.5 C-279.13878368 610.67090828 -279.6815513 607.28077358 -278.9375 603.3125 C-278.44338623 602.42626953 -277.94927246 601.54003906 -277.44018555 600.62695312 C-275.73805049 596.87257691 -275.54103391 594.26168129 -275.49609375 590.15625 C-275.48288589 589.49089233 -275.46967804 588.82553467 -275.45606995 588.14001465 C-275.41548077 586.03079984 -275.39359774 583.92201459 -275.375 581.8125 C-275.35109013 579.70311842 -275.32278579 577.59413391 -275.28321838 575.48498535 C-275.24798629 573.57153374 -275.22793222 571.65782033 -275.20874023 569.74414062 C-274.93475944 566.27782734 -274.08412551 563.57625439 -272.9375 560.3125 C-272.6752305 558.07416601 -272.6752305 558.07416601 -272.734375 555.9140625 C-272.72664063 555.11355469 -272.71890625 554.31304688 -272.7109375 553.48828125 C-272.69933594 552.22564453 -272.69933594 552.22564453 -272.6875 550.9375 C-272.50862926 544.11060013 -271.69777795 538.56393055 -268.9375 532.3125 C-265.85725527 525.33114905 -265.24595137 519.00461129 -265.25195312 511.40039062 C-265.22266914 506.26732581 -264.43714982 502.22479 -262.66137695 497.40844727 C-261.65060534 494.48181175 -261.25678488 491.56539896 -260.875 488.5 C-260.14852743 482.70897577 -260.14852743 482.70897577 -258.90625 480.375 C-257.47561964 477.32914182 -257.61251788 474.4698498 -257.5 471.125 C-256.78304651 457.20039287 -250.59768272 444.44142576 -240.9375 434.3125 C-236.33608056 430.59317084 -231.66678816 428.62546187 -225.9375 427.3125 C-225.9375 426.3225 -225.9375 425.3325 -225.9375 424.3125 C-227.61550863 423.05589551 -227.61550863 423.05589551 -229.75 422 C-233.76067688 419.58649533 -235.58433982 417.96398812 -236.9375 413.3125 C-237.85467314 405.29013744 -236.91312899 398.39255534 -232.9375 391.3125 C-232.24269531 390.56097656 -231.54789063 389.80945313 -230.83203125 389.03515625 C-228.35106092 385.46972054 -228.39081033 382.37770178 -228.375 378.1875 C-228.15687531 371.12702937 -227.05563556 365.0665549 -224.9375 358.3125 C-224.38355538 356.12807688 -223.84195441 353.94048786 -223.3125 351.75 C-222.05336902 346.54423804 -222.05336902 346.54423804 -220.9375 344.3125 C-220.0631742 337.86434722 -221.14984118 334.75549457 -224.4296875 329.17578125 C-229.66523458 319.00807225 -228.84317651 307.98167685 -228.63037109 296.82373047 C-228.56250445 293.18773852 -228.54836062 289.55453862 -228.54296875 285.91796875 C-228.5239675 283.5676809 -228.50193471 281.2174152 -228.4765625 278.8671875 C-228.47008698 277.80015594 -228.46361145 276.73312439 -228.4569397 275.63375854 C-228.21095084 264.28714876 -225.16772625 253.74356239 -221.9375 242.9375 C-219.76595007 235.5411783 -217.9740295 228.24074421 -216.67578125 220.63671875 C-215.95391 217.38638842 -214.91983316 214.51000101 -213.71118164 211.42114258 C-212.11127132 207.06064228 -211.05989088 202.52190103 -209.91992188 198.0234375 C-208.69047436 193.39212063 -207.11419302 189.3303371 -204.80786133 185.12451172 C-203.62528252 182.66249211 -203.20651284 180.08117478 -202.61328125 177.4296875 C-201.2003796 173.00314013 -198.4078903 169.21222775 -195.9375 165.3125 C-192.17662093 159.09852054 -188.67968892 152.95918632 -185.828125 146.27734375 C-183.21280848 140.50758845 -179.64795371 136.16772686 -173.9375 133.3125 C-173.98390625 132.66023437 -174.0303125 132.00796875 -174.078125 131.3359375 C-174.32180607 125.43537451 -174.07171915 121.89366176 -169.9375 117.3125 C-166.50147188 114.73547891 -165.33677132 114.3125 -160.9375 114.3125 C-160.68613281 113.72339844 -160.43476563 113.13429688 -160.17578125 112.52734375 C-158.78294599 110.03605798 -157.3166428 108.68949586 -155.125 106.875 C-151.89607556 104.1441855 -148.88290711 101.34453673 -145.9375 98.3125 C-145.2775 97.6525 -144.6175 96.9925 -143.9375 96.3125 C-143.34277801 94.71999798 -142.78466059 93.11365889 -142.25 91.5 C-140.48234528 86.89358378 -138.85803932 85.20657216 -134.7421875 82.70703125 C-129.420342 78.59469609 -126.88877371 71.49284138 -124.7734375 65.30859375 C-123.43376729 62.10966162 -121.46303272 59.3879552 -119.48828125 56.55078125 C-118.00181489 54.40532728 -116.61563141 52.22379254 -115.25 50 C-113.59879987 47.33144753 -111.88804865 44.77635092 -109.9375 42.3125 C-110.5975 41.4875 -111.2575 40.6625 -111.9375 39.8125 C-114.42705773 36.0425983 -114.79973691 32.72046623 -113.9375 28.3125 C-112.19302041 24.75644545 -110.59526378 22.80582283 -107.4375 20.4375 C-101.54049573 18.54203434 -94.84589651 18.3430345 -88.9375 20.3125 C-86.62594187 19.05070793 -86.62594187 19.05070793 -84.25 17.1875 C-82.49080432 15.88002761 -80.71829557 14.59039695 -78.9375 13.3125 C-78.39951279 12.89527176 -77.86152557 12.47804352 -77.30723572 12.048172 C-71.52093663 7.92377188 -66.55377762 7.53697915 -59.578125 7.45703125 C-58.51132507 7.42445724 -57.44452515 7.39188324 -56.34539795 7.35832214 C-52.95959328 7.25822459 -49.57414808 7.189822 -46.1875 7.125 C-42.78696593 7.04444711 -39.38684451 6.95709916 -35.98675537 6.85954285 C-33.87688676 6.80058446 -31.76668788 6.7522607 -29.65631104 6.71577454 C-28.70141785 6.69202255 -27.74652466 6.66827057 -26.76269531 6.64379883 C-25.92522766 6.62779129 -25.08776001 6.61178375 -24.22491455 6.59529114 C-21.73194946 6.28708796 -20.12137811 5.51844346 -17.9375 4.3125 C-15.68819376 3.74225335 -13.43470816 3.31196458 -11.15625 2.875 C-8.91425831 2.39941727 -8.91425831 2.39941727 -6.96484375 1.26953125 C-4.51612027 0.11358278 -2.69930927 0.01247755 0 0 Z " fill="#FFFFFF" transform="translate(281.9375,5.6875)"/>
<path d="" fill="#FFFFFF" transform="translate(0,0)"/>
<path d="" fill="#FFFFFF" transform="translate(0,0)"/>
<path d="" fill="#FFFFFF" transform="translate(0,0)"/>
</svg>
